<?xml version="1.0" encoding="UTF-8" standalone="no"?>
<!DOCTYPE svg PUBLIC "-//W3C//DTD SVG 1.1//EN"
 "http://www.w3.org/Graphics/SVG/1.1/DTD/svg11.dtd">
<!-- Generated by graphviz version 2.43.0 (0)
 -->
<!-- Title: snakemake_dag Pages: 1 -->
<svg width="1389pt" height="481pt"
 viewBox="0.00 0.00 1389.00 481.00" xmlns="http://www.w3.org/2000/svg" xmlns:xlink="http://www.w3.org/1999/xlink">
<g id="graph0" class="graph" transform="scale(1 1) rotate(0) translate(4 477)">
<title>snakemake_dag</title>
<polygon fill="white" stroke="transparent" points="-4,4 -4,-477 1385,-477 1385,4 -4,4"/>
<!-- 0 -->
<g id="node1" class="node">
<title>0</title>
<path fill="none" stroke="#569ad8" stroke-width="2" stroke-dasharray="5,2" d="M726,-36C726,-36 632,-36 632,-36 626,-36 620,-30 620,-24 620,-24 620,-12 620,-12 620,-6 626,0 632,0 632,0 726,0 726,0 732,0 738,-6 738,-12 738,-12 738,-24 738,-24 738,-30 732,-36 726,-36"/>
<text text-anchor="middle" x="679" y="-15.5" font-family="sans" font-size="10.00">aggregate_summary</text>
</g>
<!-- 1 -->
<g id="node2" class="node">
<title>1</title>
<path fill="none" stroke="#56d88a" stroke-width="2" stroke-dasharray="5,2" d="M56,-108C56,-108 12,-108 12,-108 6,-108 0,-102 0,-96 0,-96 0,-84 0,-84 0,-78 6,-72 12,-72 12,-72 56,-72 56,-72 62,-72 68,-78 68,-84 68,-84 68,-96 68,-96 68,-102 62,-108 56,-108"/>
<text text-anchor="middle" x="34" y="-87.5" font-family="sans" font-size="10.00">evaluation</text>
</g>
<!-- 1&#45;&gt;0 -->
<g id="edge1" class="edge">
<title>1&#45;&gt;0</title>
<path fill="none" stroke="grey" stroke-width="2" d="M68.46,-74.39C71.32,-73.48 74.19,-72.66 77,-72 266.11,-27.29 496.7,-19.53 609.76,-18.66"/>
<polygon fill="grey" stroke="grey" stroke-width="2" points="610.02,-22.16 620,-18.6 609.97,-15.16 610.02,-22.16"/>
</g>
<!-- 2 -->
<g id="node3" class="node">
<title>2</title>
<path fill="none" stroke="#d85656" stroke-width="2" stroke-dasharray="5,2" d="M751.5,-473C751.5,-473 710.5,-473 710.5,-473 704.5,-473 698.5,-467 698.5,-461 698.5,-461 698.5,-449 698.5,-449 698.5,-443 704.5,-437 710.5,-437 710.5,-437 751.5,-437 751.5,-437 757.5,-437 763.5,-443 763.5,-449 763.5,-449 763.5,-461 763.5,-461 763.5,-467 757.5,-473 751.5,-473"/>
<text text-anchor="middle" x="731" y="-458" font-family="sans" font-size="10.00">split_data</text>
<text text-anchor="middle" x="731" y="-447" font-family="sans" font-size="10.00">group: y</text>
</g>
<!-- 2&#45;&gt;1 -->
<g id="edge11" class="edge">
<title>2&#45;&gt;1</title>
<path fill="none" stroke="grey" stroke-width="2" d="M698.18,-452.81C575.15,-448.13 145.67,-429.87 92,-401 47.68,-377.16 22,-362.32 22,-312 22,-312 22,-312 22,-238 22,-196.04 26.92,-147.56 30.46,-118.11"/>
<polygon fill="grey" stroke="grey" stroke-width="2" points="33.93,-118.52 31.69,-108.16 26.99,-117.66 33.93,-118.52"/>
</g>
<!-- 4 -->
<g id="node5" class="node">
<title>4</title>
<path fill="none" stroke="#56d88a" stroke-width="2" stroke-dasharray="5,2" d="M1369,-108C1369,-108 1325,-108 1325,-108 1319,-108 1313,-102 1313,-96 1313,-96 1313,-84 1313,-84 1313,-78 1319,-72 1325,-72 1325,-72 1369,-72 1369,-72 1375,-72 1381,-78 1381,-84 1381,-84 1381,-96 1381,-96 1381,-102 1375,-108 1369,-108"/>
<text text-anchor="middle" x="1347" y="-87.5" font-family="sans" font-size="10.00">evaluation</text>
</g>
<!-- 2&#45;&gt;4 -->
<g id="edge13" class="edge">
<title>2&#45;&gt;4</title>
<path fill="none" stroke="grey" stroke-width="2" d="M763.67,-453C861.39,-449.64 1149.94,-436.84 1236,-401 1293.73,-376.95 1345,-374.54 1345,-312 1345,-312 1345,-312 1345,-238 1345,-196.36 1345.81,-148.09 1346.4,-118.55"/>
<polygon fill="grey" stroke="grey" stroke-width="2" points="1349.91,-118.27 1346.61,-108.2 1342.91,-118.12 1349.91,-118.27"/>
</g>
<!-- 6 -->
<g id="node7" class="node">
<title>6</title>
<path fill="none" stroke="#88d856" stroke-width="2" stroke-dasharray="5,2" d="M178,-108C178,-108 98,-108 98,-108 92,-108 86,-102 86,-96 86,-96 86,-84 86,-84 86,-78 92,-72 98,-72 98,-72 178,-72 178,-72 184,-72 190,-78 190,-84 190,-84 190,-96 190,-96 190,-102 184,-108 178,-108"/>
<text text-anchor="middle" x="138" y="-87.5" font-family="sans" font-size="10.00">evaluate_stability</text>
</g>
<!-- 2&#45;&gt;6 -->
<g id="edge15" class="edge">
<title>2&#45;&gt;6</title>
<path fill="none" stroke="grey" stroke-width="2" d="M698.18,-454.14C563.47,-453.87 60,-444.02 60,-312 60,-312 60,-312 60,-238 60,-190.67 91.94,-143.71 114.95,-116.04"/>
<polygon fill="grey" stroke="grey" stroke-width="2" points="117.62,-118.3 121.46,-108.42 112.3,-113.75 117.62,-118.3"/>
</g>
<!-- 7 -->
<g id="node8" class="node">
<title>7</title>
<path fill="none" stroke="#56d86b" stroke-width="2" stroke-dasharray="5,2" d="M512,-257C512,-257 434,-257 434,-257 428,-257 422,-251 422,-245 422,-245 422,-233 422,-233 422,-227 428,-221 434,-221 434,-221 512,-221 512,-221 518,-221 524,-227 524,-233 524,-233 524,-245 524,-245 524,-251 518,-257 512,-257"/>
<text text-anchor="middle" x="473" y="-236.5" font-family="sans" font-size="10.00">stability_analysis</text>
</g>
<!-- 2&#45;&gt;7 -->
<g id="edge18" class="edge">
<title>2&#45;&gt;7</title>
<path fill="none" stroke="grey" stroke-width="2" d="M698.3,-444.38C672.42,-435.73 636.24,-421.26 609,-401 557.26,-362.51 512.3,-300.7 489.31,-265.93"/>
<polygon fill="grey" stroke="grey" stroke-width="2" points="492.07,-263.76 483.68,-257.29 486.21,-267.58 492.07,-263.76"/>
</g>
<!-- 8 -->
<g id="node9" class="node">
<title>8</title>
<path fill="none" stroke="#d89c56" stroke-width="2" stroke-dasharray="5,2" d="M776,-329C776,-329 688,-329 688,-329 682,-329 676,-323 676,-317 676,-317 676,-305 676,-305 676,-299 682,-293 688,-293 688,-293 776,-293 776,-293 782,-293 788,-299 788,-305 788,-305 788,-317 788,-317 788,-323 782,-329 776,-329"/>
<text text-anchor="middle" x="732" y="-308.5" font-family="sans" font-size="10.00">correlated_features</text>
</g>
<!-- 2&#45;&gt;8 -->
<g id="edge21" class="edge">
<title>2&#45;&gt;8</title>
<path fill="none" stroke="grey" stroke-width="2" d="M740.54,-436.93C745.64,-426.82 751.39,-413.57 754,-401 757.25,-385.33 757.13,-380.69 754,-365 752.21,-356.01 748.86,-346.64 745.31,-338.32"/>
<polygon fill="grey" stroke="grey" stroke-width="2" points="748.46,-336.77 741.13,-329.12 742.08,-339.67 748.46,-336.77"/>
</g>
<!-- 9 -->
<g id="node10" class="node">
<title>9</title>
<path fill="none" stroke="#68d856" stroke-width="2" stroke-dasharray="5,2" d="M733,-401C733,-401 647,-401 647,-401 641,-401 635,-395 635,-389 635,-389 635,-377 635,-377 635,-371 641,-365 647,-365 647,-365 733,-365 733,-365 739,-365 745,-371 745,-377 745,-377 745,-389 745,-389 745,-395 739,-401 733,-401"/>
<text text-anchor="middle" x="690" y="-380.5" font-family="sans" font-size="10.00">variance_threshold</text>
</g>
<!-- 2&#45;&gt;9 -->
<g id="edge23" class="edge">
<title>2&#45;&gt;9</title>
<path fill="none" stroke="grey" stroke-width="2" d="M720.87,-436.7C716.15,-428.64 710.44,-418.89 705.22,-409.98"/>
<polygon fill="grey" stroke="grey" stroke-width="2" points="708.09,-407.96 700.02,-401.1 702.05,-411.5 708.09,-407.96"/>
</g>
<!-- 10 -->
<g id="node11" class="node">
<title>10</title>
<path fill="none" stroke="#afd856" stroke-width="2" stroke-dasharray="5,2" d="M335.5,-108C335.5,-108 220.5,-108 220.5,-108 214.5,-108 208.5,-102 208.5,-96 208.5,-96 208.5,-84 208.5,-84 208.5,-78 214.5,-72 220.5,-72 220.5,-72 335.5,-72 335.5,-72 341.5,-72 347.5,-78 347.5,-84 347.5,-84 347.5,-96 347.5,-96 347.5,-102 341.5,-108 335.5,-108"/>
<text text-anchor="middle" x="278" y="-93" font-family="sans" font-size="10.00">evaluate_boruta</text>
<text text-anchor="middle" x="278" y="-82" font-family="sans" font-size="10.00">feature_selection: boruta</text>
</g>
<!-- 2&#45;&gt;10 -->
<g id="edge24" class="edge">
<title>2&#45;&gt;10</title>
<path fill="none" stroke="grey" stroke-width="2" d="M698.24,-453.12C614.66,-450.34 395.88,-439.49 336,-401 296.69,-375.73 280,-358.73 280,-312 280,-312 280,-312 280,-238 280,-196.36 279.19,-148.09 278.6,-118.55"/>
<polygon fill="grey" stroke="grey" stroke-width="2" points="282.09,-118.12 278.39,-108.2 275.09,-118.27 282.09,-118.12"/>
</g>
<!-- 11 -->
<g id="node12" class="node">
<title>11</title>
<path fill="none" stroke="#56d8d0" stroke-width="2" stroke-dasharray="5,2" d="M620,-182.5C620,-182.5 590,-182.5 590,-182.5 584,-182.5 578,-176.5 578,-170.5 578,-170.5 578,-158.5 578,-158.5 578,-152.5 584,-146.5 590,-146.5 590,-146.5 620,-146.5 620,-146.5 626,-146.5 632,-152.5 632,-158.5 632,-158.5 632,-170.5 632,-170.5 632,-176.5 626,-182.5 620,-182.5"/>
<text text-anchor="middle" x="605" y="-162" font-family="sans" font-size="10.00">boruta</text>
</g>
<!-- 2&#45;&gt;11 -->
<g id="edge27" class="edge">
<title>2&#45;&gt;11</title>
<path fill="none" stroke="grey" stroke-width="2" d="M698.43,-448.23C663.39,-441.02 606.93,-426.41 564,-401 484.2,-353.76 449.5,-342.25 413,-257 406.7,-242.29 403.38,-233.79 413,-221 431.58,-196.29 517.35,-179.08 567.75,-170.91"/>
<polygon fill="grey" stroke="grey" stroke-width="2" points="568.29,-174.37 577.63,-169.35 567.2,-167.46 568.29,-174.37"/>
</g>
<!-- 12 -->
<g id="node13" class="node">
<title>12</title>
<path fill="none" stroke="#567bd8" stroke-width="2" stroke-dasharray="5,2" d="M668,-257C668,-257 592,-257 592,-257 586,-257 580,-251 580,-245 580,-245 580,-233 580,-233 580,-227 586,-221 592,-221 592,-221 668,-221 668,-221 674,-221 680,-227 680,-233 680,-233 680,-245 680,-245 680,-251 674,-257 668,-257"/>
<text text-anchor="middle" x="630" y="-242" font-family="sans" font-size="10.00">estimator_tuning</text>
<text text-anchor="middle" x="630" y="-231" font-family="sans" font-size="10.00">estimator: RFC</text>
</g>
<!-- 2&#45;&gt;12 -->
<g id="edge31" class="edge">
<title>2&#45;&gt;12</title>
<path fill="none" stroke="grey" stroke-width="2" d="M698.41,-447.19C673.8,-440.15 641.68,-426.48 626,-401 600.63,-359.78 611.4,-300.7 621.03,-266.75"/>
<polygon fill="grey" stroke="grey" stroke-width="2" points="624.42,-267.66 623.94,-257.07 617.71,-265.64 624.42,-267.66"/>
</g>
<!-- 13 -->
<g id="node14" class="node">
<title>13</title>
<path fill="none" stroke="#56d8a9" stroke-width="2" stroke-dasharray="5,2" d="M502.5,-108C502.5,-108 377.5,-108 377.5,-108 371.5,-108 365.5,-102 365.5,-96 365.5,-96 365.5,-84 365.5,-84 365.5,-78 371.5,-72 377.5,-72 377.5,-72 502.5,-72 502.5,-72 508.5,-72 514.5,-78 514.5,-84 514.5,-84 514.5,-96 514.5,-96 514.5,-102 508.5,-108 502.5,-108"/>
<text text-anchor="middle" x="440" y="-87.5" font-family="sans" font-size="10.00">evaluate_feature_selection</text>
</g>
<!-- 2&#45;&gt;13 -->
<g id="edge34" class="edge">
<title>2&#45;&gt;13</title>
<path fill="none" stroke="grey" stroke-width="2" d="M698.49,-451.55C625.41,-445.61 450.55,-428.85 399,-401 351.94,-375.58 318,-365.48 318,-312 318,-312 318,-312 318,-238 318,-184.12 367.14,-139.42 403.05,-113.95"/>
<polygon fill="grey" stroke="grey" stroke-width="2" points="405.15,-116.75 411.4,-108.2 401.18,-110.99 405.15,-116.75"/>
</g>
<!-- 14 -->
<g id="node15" class="node">
<title>14</title>
<path fill="none" stroke="#56c1d8" stroke-width="2" stroke-dasharray="5,2" d="M839.5,-182.5C839.5,-182.5 696.5,-182.5 696.5,-182.5 690.5,-182.5 684.5,-176.5 684.5,-170.5 684.5,-170.5 684.5,-158.5 684.5,-158.5 684.5,-152.5 690.5,-146.5 696.5,-146.5 696.5,-146.5 839.5,-146.5 839.5,-146.5 845.5,-146.5 851.5,-152.5 851.5,-158.5 851.5,-158.5 851.5,-170.5 851.5,-170.5 851.5,-176.5 845.5,-182.5 839.5,-182.5"/>
<text text-anchor="middle" x="768" y="-167.5" font-family="sans" font-size="10.00">feature_selection</text>
<text text-anchor="middle" x="768" y="-156.5" font-family="sans" font-size="10.00">feature_selection: sklearn_RFE</text>
</g>
<!-- 2&#45;&gt;14 -->
<g id="edge37" class="edge">
<title>2&#45;&gt;14</title>
<path fill="none" stroke="grey" stroke-width="2" d="M763.62,-440.82C784.6,-431.47 811.81,-417.64 833,-401 899.89,-348.49 929.09,-336.61 959,-257 964.63,-242.02 968.61,-233.8 959,-221 952.05,-211.75 900.04,-196.97 852.04,-184.99"/>
<polygon fill="grey" stroke="grey" stroke-width="2" points="852.74,-181.56 842.19,-182.56 851.06,-188.36 852.74,-181.56"/>
</g>
<!-- 15 -->
<g id="node16" class="node">
<title>15</title>
<path fill="none" stroke="#56d8a9" stroke-width="2" stroke-dasharray="5,2" d="M669.5,-108C669.5,-108 544.5,-108 544.5,-108 538.5,-108 532.5,-102 532.5,-96 532.5,-96 532.5,-84 532.5,-84 532.5,-78 538.5,-72 544.5,-72 544.5,-72 669.5,-72 669.5,-72 675.5,-72 681.5,-78 681.5,-84 681.5,-84 681.5,-96 681.5,-96 681.5,-102 675.5,-108 669.5,-108"/>
<text text-anchor="middle" x="607" y="-87.5" font-family="sans" font-size="10.00">evaluate_feature_selection</text>
</g>
<!-- 2&#45;&gt;15 -->
<g id="edge41" class="edge">
<title>2&#45;&gt;15</title>
<path fill="none" stroke="grey" stroke-width="2" d="M698.38,-448.86C607.14,-433.59 356,-384.92 356,-312 356,-312 356,-312 356,-238 356,-193.42 475.41,-140.4 549.51,-111.8"/>
<polygon fill="grey" stroke="grey" stroke-width="2" points="551.11,-114.93 559.2,-108.09 548.61,-108.39 551.11,-114.93"/>
</g>
<!-- 16 -->
<g id="node17" class="node">
<title>16</title>
<path fill="none" stroke="#56c1d8" stroke-width="2" stroke-dasharray="5,2" d="M1032.5,-182.5C1032.5,-182.5 889.5,-182.5 889.5,-182.5 883.5,-182.5 877.5,-176.5 877.5,-170.5 877.5,-170.5 877.5,-158.5 877.5,-158.5 877.5,-152.5 883.5,-146.5 889.5,-146.5 889.5,-146.5 1032.5,-146.5 1032.5,-146.5 1038.5,-146.5 1044.5,-152.5 1044.5,-158.5 1044.5,-158.5 1044.5,-170.5 1044.5,-170.5 1044.5,-176.5 1038.5,-182.5 1032.5,-182.5"/>
<text text-anchor="middle" x="961" y="-167.5" font-family="sans" font-size="10.00">feature_selection</text>
<text text-anchor="middle" x="961" y="-156.5" font-family="sans" font-size="10.00">feature_selection: sklearn_RFE</text>
</g>
<!-- 2&#45;&gt;16 -->
<g id="edge44" class="edge">
<title>2&#45;&gt;16</title>
<path fill="none" stroke="grey" stroke-width="2" d="M763.61,-445.6C792.92,-437.14 836.4,-422.28 870,-401 909.04,-376.27 918.9,-367.13 945,-329 973.14,-287.89 981.14,-270.44 975,-221 973.84,-211.64 971.61,-201.6 969.28,-192.66"/>
<polygon fill="grey" stroke="grey" stroke-width="2" points="972.58,-191.49 966.53,-182.79 965.84,-193.36 972.58,-191.49"/>
</g>
<!-- 17 -->
<g id="node18" class="node">
<title>17</title>
<path fill="none" stroke="#567bd8" stroke-width="2" stroke-dasharray="5,2" d="M938,-257C938,-257 862,-257 862,-257 856,-257 850,-251 850,-245 850,-245 850,-233 850,-233 850,-227 856,-221 862,-221 862,-221 938,-221 938,-221 944,-221 950,-227 950,-233 950,-233 950,-245 950,-245 950,-251 944,-257 938,-257"/>
<text text-anchor="middle" x="900" y="-242" font-family="sans" font-size="10.00">estimator_tuning</text>
<text text-anchor="middle" x="900" y="-231" font-family="sans" font-size="10.00">estimator: LR_l2</text>
</g>
<!-- 2&#45;&gt;17 -->
<g id="edge48" class="edge">
<title>2&#45;&gt;17</title>
<path fill="none" stroke="grey" stroke-width="2" d="M755.39,-436.97C785.16,-415.06 835.32,-374.38 866,-329 878.84,-310.01 887.74,-285.5 893.2,-267.01"/>
<polygon fill="grey" stroke="grey" stroke-width="2" points="896.63,-267.74 895.96,-257.17 889.89,-265.86 896.63,-267.74"/>
</g>
<!-- 18 -->
<g id="node19" class="node">
<title>18</title>
<path fill="none" stroke="#88d856" stroke-width="2" stroke-dasharray="5,2" d="M792,-108C792,-108 712,-108 712,-108 706,-108 700,-102 700,-96 700,-96 700,-84 700,-84 700,-78 706,-72 712,-72 712,-72 792,-72 792,-72 798,-72 804,-78 804,-84 804,-84 804,-96 804,-96 804,-102 798,-108 792,-108"/>
<text text-anchor="middle" x="752" y="-87.5" font-family="sans" font-size="10.00">evaluate_stability</text>
</g>
<!-- 2&#45;&gt;18 -->
<g id="edge51" class="edge">
<title>2&#45;&gt;18</title>
<path fill="none" stroke="grey" stroke-width="2" d="M763.67,-448.4C852.54,-432.25 1092,-382.21 1092,-312 1092,-312 1092,-312 1092,-238 1092,-192.94 1089.38,-171.9 1054,-144 971.79,-79.17 922.48,-127.29 814.28,-107.77"/>
<polygon fill="grey" stroke="grey" stroke-width="2" points="814.81,-104.31 804.32,-105.82 813.46,-111.18 814.81,-104.31"/>
</g>
<!-- 19 -->
<g id="node20" class="node">
<title>19</title>
<path fill="none" stroke="#afd856" stroke-width="2" stroke-dasharray="5,2" d="M949.5,-108C949.5,-108 834.5,-108 834.5,-108 828.5,-108 822.5,-102 822.5,-96 822.5,-96 822.5,-84 822.5,-84 822.5,-78 828.5,-72 834.5,-72 834.5,-72 949.5,-72 949.5,-72 955.5,-72 961.5,-78 961.5,-84 961.5,-84 961.5,-96 961.5,-96 961.5,-102 955.5,-108 949.5,-108"/>
<text text-anchor="middle" x="892" y="-93" font-family="sans" font-size="10.00">evaluate_boruta</text>
<text text-anchor="middle" x="892" y="-82" font-family="sans" font-size="10.00">feature_selection: boruta</text>
</g>
<!-- 2&#45;&gt;19 -->
<g id="edge54" class="edge">
<title>2&#45;&gt;19</title>
<path fill="none" stroke="grey" stroke-width="2" d="M763.69,-452.93C818.28,-450.07 930.43,-439.56 1016,-401 1074.6,-374.59 1130,-376.28 1130,-312 1130,-312 1130,-312 1130,-238 1130,-191.49 1119.8,-173.7 1084,-144 1074.87,-136.42 1020.31,-121.73 971.67,-109.73"/>
<polygon fill="grey" stroke="grey" stroke-width="2" points="972.27,-106.27 961.72,-107.29 970.6,-113.07 972.27,-106.27"/>
</g>
<!-- 20 -->
<g id="node21" class="node">
<title>20</title>
<path fill="none" stroke="#56d8a9" stroke-width="2" stroke-dasharray="5,2" d="M1116.5,-108C1116.5,-108 991.5,-108 991.5,-108 985.5,-108 979.5,-102 979.5,-96 979.5,-96 979.5,-84 979.5,-84 979.5,-78 985.5,-72 991.5,-72 991.5,-72 1116.5,-72 1116.5,-72 1122.5,-72 1128.5,-78 1128.5,-84 1128.5,-84 1128.5,-96 1128.5,-96 1128.5,-102 1122.5,-108 1116.5,-108"/>
<text text-anchor="middle" x="1054" y="-87.5" font-family="sans" font-size="10.00">evaluate_feature_selection</text>
</g>
<!-- 2&#45;&gt;20 -->
<g id="edge57" class="edge">
<title>2&#45;&gt;20</title>
<path fill="none" stroke="grey" stroke-width="2" d="M763.61,-451.45C838.29,-445.21 1019.49,-427.72 1074,-401 1125.66,-375.68 1168,-369.53 1168,-312 1168,-312 1168,-312 1168,-238 1168,-185.3 1121.69,-140.06 1088.1,-114.18"/>
<polygon fill="grey" stroke="grey" stroke-width="2" points="1089.97,-111.21 1079.87,-108.03 1085.78,-116.82 1089.97,-111.21"/>
</g>
<!-- 21 -->
<g id="node22" class="node">
<title>21</title>
<path fill="none" stroke="#56d8a9" stroke-width="2" stroke-dasharray="5,2" d="M1283.5,-108C1283.5,-108 1158.5,-108 1158.5,-108 1152.5,-108 1146.5,-102 1146.5,-96 1146.5,-96 1146.5,-84 1146.5,-84 1146.5,-78 1152.5,-72 1158.5,-72 1158.5,-72 1283.5,-72 1283.5,-72 1289.5,-72 1295.5,-78 1295.5,-84 1295.5,-84 1295.5,-96 1295.5,-96 1295.5,-102 1289.5,-108 1283.5,-108"/>
<text text-anchor="middle" x="1221" y="-87.5" font-family="sans" font-size="10.00">evaluate_feature_selection</text>
</g>
<!-- 2&#45;&gt;21 -->
<g id="edge60" class="edge">
<title>2&#45;&gt;21</title>
<path fill="none" stroke="grey" stroke-width="2" d="M763.87,-452.98C885.62,-448.3 1304,-424.1 1304,-312 1304,-312 1304,-312 1304,-238 1304,-195.38 1306.89,-180.57 1285,-144 1278.16,-132.57 1267.93,-122.49 1257.65,-114.28"/>
<polygon fill="grey" stroke="grey" stroke-width="2" points="1259.54,-111.32 1249.45,-108.1 1255.33,-116.91 1259.54,-111.32"/>
</g>
<!-- 3 -->
<g id="node4" class="node">
<title>3</title>
<path fill="none" stroke="#d8bc56" stroke-width="2" stroke-dasharray="5,2" d="M239.5,-185C239.5,-185 138.5,-185 138.5,-185 132.5,-185 126.5,-179 126.5,-173 126.5,-173 126.5,-156 126.5,-156 126.5,-150 132.5,-144 138.5,-144 138.5,-144 239.5,-144 239.5,-144 245.5,-144 251.5,-150 251.5,-156 251.5,-156 251.5,-173 251.5,-173 251.5,-179 245.5,-185 239.5,-185"/>
<text text-anchor="middle" x="189" y="-173" font-family="sans" font-size="10.00">build_model</text>
<text text-anchor="middle" x="189" y="-162" font-family="sans" font-size="10.00">group: y</text>
<text text-anchor="middle" x="189" y="-151" font-family="sans" font-size="10.00">method: LR_elasticnet</text>
</g>
<!-- 3&#45;&gt;1 -->
<g id="edge12" class="edge">
<title>3&#45;&gt;1</title>
<path fill="none" stroke="grey" stroke-width="2" d="M147.05,-143.88C125.5,-133.8 99.26,-121.52 77.49,-111.34"/>
<polygon fill="grey" stroke="grey" stroke-width="2" points="78.69,-108.04 68.14,-106.97 75.72,-114.38 78.69,-108.04"/>
</g>
<!-- 3&#45;&gt;6 -->
<g id="edge17" class="edge">
<title>3&#45;&gt;6</title>
<path fill="none" stroke="grey" stroke-width="2" d="M175.06,-143.69C169.16,-135.3 162.22,-125.42 155.94,-116.5"/>
<polygon fill="grey" stroke="grey" stroke-width="2" points="158.8,-114.48 150.18,-108.32 153.07,-118.51 158.8,-114.48"/>
</g>
<!-- 3&#45;&gt;10 -->
<g id="edge26" class="edge">
<title>3&#45;&gt;10</title>
<path fill="none" stroke="grey" stroke-width="2" d="M213.32,-143.69C224.34,-134.72 237.45,-124.04 248.97,-114.65"/>
<polygon fill="grey" stroke="grey" stroke-width="2" points="251.49,-117.11 257.04,-108.08 247.07,-111.68 251.49,-117.11"/>
</g>
<!-- 3&#45;&gt;13 -->
<g id="edge36" class="edge">
<title>3&#45;&gt;13</title>
<path fill="none" stroke="grey" stroke-width="2" d="M251.69,-145.39C288.08,-134.88 333.96,-121.63 371.32,-110.84"/>
<polygon fill="grey" stroke="grey" stroke-width="2" points="372.49,-114.14 381.12,-108.01 370.54,-107.42 372.49,-114.14"/>
</g>
<!-- 3&#45;&gt;15 -->
<g id="edge43" class="edge">
<title>3&#45;&gt;15</title>
<path fill="none" stroke="grey" stroke-width="2" d="M251.6,-153.77C316.63,-143.51 421.59,-126.52 522.32,-108.09"/>
<polygon fill="grey" stroke="grey" stroke-width="2" points="523.17,-111.49 532.37,-106.24 521.9,-104.61 523.17,-111.49"/>
</g>
<!-- 4&#45;&gt;0 -->
<g id="edge2" class="edge">
<title>4&#45;&gt;0</title>
<path fill="none" stroke="grey" stroke-width="2" d="M1312.89,-74.22C1310.25,-73.38 1307.6,-72.62 1305,-72 1107.03,-24.7 865.03,-18.2 748.4,-18.15"/>
<polygon fill="grey" stroke="grey" stroke-width="2" points="748.18,-14.65 738.18,-18.16 748.19,-21.65 748.18,-14.65"/>
</g>
<!-- 5 -->
<g id="node6" class="node">
<title>5</title>
<path fill="none" stroke="#d8bc56" stroke-width="2" stroke-dasharray="5,2" d="M1264,-185C1264,-185 1208,-185 1208,-185 1202,-185 1196,-179 1196,-173 1196,-173 1196,-156 1196,-156 1196,-150 1202,-144 1208,-144 1208,-144 1264,-144 1264,-144 1270,-144 1276,-150 1276,-156 1276,-156 1276,-173 1276,-173 1276,-179 1270,-185 1264,-185"/>
<text text-anchor="middle" x="1236" y="-173" font-family="sans" font-size="10.00">build_model</text>
<text text-anchor="middle" x="1236" y="-162" font-family="sans" font-size="10.00">group: y</text>
<text text-anchor="middle" x="1236" y="-151" font-family="sans" font-size="10.00">method: RFC</text>
</g>
<!-- 5&#45;&gt;4 -->
<g id="edge14" class="edge">
<title>5&#45;&gt;4</title>
<path fill="none" stroke="grey" stroke-width="2" d="M1266.04,-143.88C1280.31,-134.56 1297.46,-123.36 1312.29,-113.67"/>
<polygon fill="grey" stroke="grey" stroke-width="2" points="1314.26,-116.57 1320.72,-108.17 1310.43,-110.7 1314.26,-116.57"/>
</g>
<!-- 5&#45;&gt;18 -->
<g id="edge53" class="edge">
<title>5&#45;&gt;18</title>
<path fill="none" stroke="grey" stroke-width="2" d="M1195.92,-157.21C1170.24,-153.25 1136.19,-148.12 1106,-144 979.61,-126.73 944,-133.03 814.23,-107.86"/>
<polygon fill="grey" stroke="grey" stroke-width="2" points="814.79,-104.41 804.3,-105.91 813.44,-111.28 814.79,-104.41"/>
</g>
<!-- 5&#45;&gt;19 -->
<g id="edge56" class="edge">
<title>5&#45;&gt;19</title>
<path fill="none" stroke="grey" stroke-width="2" d="M1195.7,-154.92C1179.62,-151.51 1160.94,-147.56 1144,-144 1070.14,-128.49 1049.43,-124.56 971.57,-108.11"/>
<polygon fill="grey" stroke="grey" stroke-width="2" points="972.29,-104.69 961.78,-106.04 970.84,-111.54 972.29,-104.69"/>
</g>
<!-- 5&#45;&gt;20 -->
<g id="edge59" class="edge">
<title>5&#45;&gt;20</title>
<path fill="none" stroke="grey" stroke-width="2" d="M1195.61,-147.41C1169.26,-136.92 1134.62,-123.12 1106.2,-111.79"/>
<polygon fill="grey" stroke="grey" stroke-width="2" points="1107.4,-108.5 1096.81,-108.06 1104.81,-115.01 1107.4,-108.5"/>
</g>
<!-- 5&#45;&gt;21 -->
<g id="edge62" class="edge">
<title>5&#45;&gt;21</title>
<path fill="none" stroke="grey" stroke-width="2" d="M1231.9,-143.69C1230.27,-135.82 1228.37,-126.64 1226.62,-118.17"/>
<polygon fill="grey" stroke="grey" stroke-width="2" points="1230.04,-117.4 1224.58,-108.32 1223.18,-118.82 1230.04,-117.4"/>
</g>
<!-- 6&#45;&gt;0 -->
<g id="edge3" class="edge">
<title>6&#45;&gt;0</title>
<path fill="none" stroke="grey" stroke-width="2" d="M190.11,-73.88C193.11,-73.2 196.09,-72.56 199,-72 343.6,-44.06 515.77,-29.51 609.58,-23.13"/>
<polygon fill="grey" stroke="grey" stroke-width="2" points="610.05,-26.6 619.79,-22.44 609.58,-19.62 610.05,-26.6"/>
</g>
<!-- 7&#45;&gt;6 -->
<g id="edge16" class="edge">
<title>7&#45;&gt;6</title>
<path fill="none" stroke="grey" stroke-width="2" d="M421.94,-238.21C333.09,-237.38 155.76,-229.96 117,-185 100.81,-166.22 110.42,-137.66 121.38,-116.94"/>
<polygon fill="grey" stroke="grey" stroke-width="2" points="124.53,-118.47 126.42,-108.04 118.44,-115.02 124.53,-118.47"/>
</g>
<!-- 7&#45;&gt;18 -->
<g id="edge52" class="edge">
<title>7&#45;&gt;18</title>
<path fill="none" stroke="grey" stroke-width="2" d="M486.03,-220.81C502.93,-199.71 534.35,-164.23 569,-144 571.76,-142.39 637.88,-123.41 689.85,-108.62"/>
<polygon fill="grey" stroke="grey" stroke-width="2" points="691.04,-111.92 699.7,-105.82 689.13,-105.18 691.04,-111.92"/>
</g>
<!-- 8&#45;&gt;7 -->
<g id="edge19" class="edge">
<title>8&#45;&gt;7</title>
<path fill="none" stroke="grey" stroke-width="2" d="M675.8,-294.81C633.98,-283.51 576.95,-268.09 534.02,-256.49"/>
<polygon fill="grey" stroke="grey" stroke-width="2" points="534.82,-253.08 524.25,-253.85 533,-259.84 534.82,-253.08"/>
</g>
<!-- 8&#45;&gt;11 -->
<g id="edge28" class="edge">
<title>8&#45;&gt;11</title>
<path fill="none" stroke="grey" stroke-width="2" d="M726.75,-292.69C720.26,-273.5 707.75,-242.44 689,-221 675.7,-205.79 657.28,-193 641.08,-183.55"/>
<polygon fill="grey" stroke="grey" stroke-width="2" points="642.79,-180.49 632.36,-178.64 639.36,-186.59 642.79,-180.49"/>
</g>
<!-- 8&#45;&gt;12 -->
<g id="edge32" class="edge">
<title>8&#45;&gt;12</title>
<path fill="none" stroke="grey" stroke-width="2" d="M707.05,-292.88C693.96,-283.89 677.74,-272.76 663.56,-263.03"/>
<polygon fill="grey" stroke="grey" stroke-width="2" points="665.27,-259.96 655.05,-257.19 661.31,-265.73 665.27,-259.96"/>
</g>
<!-- 8&#45;&gt;14 -->
<g id="edge38" class="edge">
<title>8&#45;&gt;14</title>
<path fill="none" stroke="grey" stroke-width="2" d="M736.27,-292.86C742.44,-268.09 753.91,-222.05 761.24,-192.63"/>
<polygon fill="grey" stroke="grey" stroke-width="2" points="764.71,-193.17 763.73,-182.62 757.92,-191.48 764.71,-193.17"/>
</g>
<!-- 8&#45;&gt;16 -->
<g id="edge45" class="edge">
<title>8&#45;&gt;16</title>
<path fill="none" stroke="grey" stroke-width="2" d="M750.19,-292.71C770.99,-273.54 806.62,-242.51 841,-221 862.02,-207.85 886.67,-195.92 908.13,-186.52"/>
<polygon fill="grey" stroke="grey" stroke-width="2" points="909.63,-189.68 917.44,-182.51 906.87,-183.25 909.63,-189.68"/>
</g>
<!-- 8&#45;&gt;17 -->
<g id="edge49" class="edge">
<title>8&#45;&gt;17</title>
<path fill="none" stroke="grey" stroke-width="2" d="M773.1,-292.88C796.17,-283.26 825.14,-271.19 849.57,-261.01"/>
<polygon fill="grey" stroke="grey" stroke-width="2" points="851.15,-264.15 859.04,-257.07 848.46,-257.68 851.15,-264.15"/>
</g>
<!-- 9&#45;&gt;7 -->
<g id="edge20" class="edge">
<title>9&#45;&gt;7</title>
<path fill="none" stroke="grey" stroke-width="2" d="M643.89,-364.9C621.65,-355.72 595.06,-343.34 573,-329 544.27,-310.33 515.47,-283.65 496.2,-264.37"/>
<polygon fill="grey" stroke="grey" stroke-width="2" points="498.57,-261.79 489.06,-257.12 493.58,-266.7 498.57,-261.79"/>
</g>
<!-- 9&#45;&gt;8 -->
<g id="edge22" class="edge">
<title>9&#45;&gt;8</title>
<path fill="none" stroke="grey" stroke-width="2" d="M700.38,-364.7C705.26,-356.56 711.19,-346.69 716.58,-337.7"/>
<polygon fill="grey" stroke="grey" stroke-width="2" points="719.59,-339.48 721.74,-329.1 713.59,-335.88 719.59,-339.48"/>
</g>
<!-- 9&#45;&gt;11 -->
<g id="edge29" class="edge">
<title>9&#45;&gt;11</title>
<path fill="none" stroke="grey" stroke-width="2" d="M664.88,-364.98C635.91,-343.67 589.86,-304.16 571,-257 562.19,-234.96 573.2,-209.64 584.98,-191.24"/>
<polygon fill="grey" stroke="grey" stroke-width="2" points="587.99,-193.03 590.74,-182.8 582.21,-189.08 587.99,-193.03"/>
</g>
<!-- 9&#45;&gt;12 -->
<g id="edge33" class="edge">
<title>9&#45;&gt;12</title>
<path fill="none" stroke="grey" stroke-width="2" d="M682.47,-364.84C677.95,-354.48 672.1,-341 667,-329 658.14,-308.14 648.3,-284.45 641,-266.75"/>
<polygon fill="grey" stroke="grey" stroke-width="2" points="644.06,-265.01 637.02,-257.09 637.59,-267.67 644.06,-265.01"/>
</g>
<!-- 9&#45;&gt;14 -->
<g id="edge39" class="edge">
<title>9&#45;&gt;14</title>
<path fill="none" stroke="grey" stroke-width="2" d="M745.22,-367.97C765.08,-359.97 785.41,-347.67 797,-329 823.54,-286.24 800.39,-225.76 782.99,-191.62"/>
<polygon fill="grey" stroke="grey" stroke-width="2" points="786.05,-189.92 778.27,-182.72 779.86,-193.2 786.05,-189.92"/>
</g>
<!-- 9&#45;&gt;16 -->
<g id="edge46" class="edge">
<title>9&#45;&gt;16</title>
<path fill="none" stroke="grey" stroke-width="2" d="M745,-376C811.4,-365.33 919.13,-336.09 959,-257 968.97,-237.22 968.68,-211.85 966.34,-192.84"/>
<polygon fill="grey" stroke="grey" stroke-width="2" points="969.77,-192.12 964.83,-182.74 962.85,-193.15 969.77,-192.12"/>
</g>
<!-- 9&#45;&gt;17 -->
<g id="edge50" class="edge">
<title>9&#45;&gt;17</title>
<path fill="none" stroke="grey" stroke-width="2" d="M745.15,-370.35C774.25,-362.24 809.34,-349.18 836,-329 858.14,-312.25 875.83,-285.68 886.95,-265.93"/>
<polygon fill="grey" stroke="grey" stroke-width="2" points="890.04,-267.58 891.74,-257.13 883.89,-264.24 890.04,-267.58"/>
</g>
<!-- 10&#45;&gt;0 -->
<g id="edge4" class="edge">
<title>10&#45;&gt;0</title>
<path fill="none" stroke="grey" stroke-width="2" d="M347.75,-73.8C350.87,-73.18 353.97,-72.58 357,-72 443.78,-55.53 544.29,-39.46 609.62,-29.42"/>
<polygon fill="grey" stroke="grey" stroke-width="2" points="610.44,-32.83 619.8,-27.86 609.38,-25.91 610.44,-32.83"/>
</g>
<!-- 11&#45;&gt;10 -->
<g id="edge25" class="edge">
<title>11&#45;&gt;10</title>
<path fill="none" stroke="grey" stroke-width="2" d="M577.96,-157.51C530.17,-146.91 429.08,-124.5 357.49,-108.62"/>
<polygon fill="grey" stroke="grey" stroke-width="2" points="358.11,-105.18 347.59,-106.43 356.59,-112.01 358.11,-105.18"/>
</g>
<!-- 11&#45;&gt;19 -->
<g id="edge55" class="edge">
<title>11&#45;&gt;19</title>
<path fill="none" stroke="grey" stroke-width="2" d="M632.26,-155.82C645.45,-152.16 661.53,-147.76 676,-144 721.05,-132.29 771.58,-119.85 812.43,-109.97"/>
<polygon fill="grey" stroke="grey" stroke-width="2" points="813.43,-113.33 822.33,-107.58 811.78,-106.53 813.43,-113.33"/>
</g>
<!-- 12&#45;&gt;11 -->
<g id="edge30" class="edge">
<title>12&#45;&gt;11</title>
<path fill="none" stroke="grey" stroke-width="2" d="M624.08,-220.82C621.12,-212.24 617.47,-201.67 614.17,-192.08"/>
<polygon fill="grey" stroke="grey" stroke-width="2" points="617.45,-190.87 610.88,-182.56 610.83,-193.15 617.45,-190.87"/>
</g>
<!-- 12&#45;&gt;14 -->
<g id="edge40" class="edge">
<title>12&#45;&gt;14</title>
<path fill="none" stroke="grey" stroke-width="2" d="M662.7,-220.82C681.78,-210.8 706.03,-198.06 726.45,-187.33"/>
<polygon fill="grey" stroke="grey" stroke-width="2" points="728.31,-190.31 735.53,-182.56 725.05,-184.11 728.31,-190.31"/>
</g>
<!-- 13&#45;&gt;0 -->
<g id="edge5" class="edge">
<title>13&#45;&gt;0</title>
<path fill="none" stroke="grey" stroke-width="2" d="M498.16,-71.97C532.13,-62.01 575.18,-49.41 610.76,-38.99"/>
<polygon fill="grey" stroke="grey" stroke-width="2" points="611.97,-42.28 620.58,-36.11 610,-35.56 611.97,-42.28"/>
</g>
<!-- 14&#45;&gt;13 -->
<g id="edge35" class="edge">
<title>14&#45;&gt;13</title>
<path fill="none" stroke="grey" stroke-width="2" d="M690.68,-146.41C640.79,-135.38 575.87,-121.03 524.6,-109.7"/>
<polygon fill="grey" stroke="grey" stroke-width="2" points="525.06,-106.22 514.54,-107.48 523.55,-113.05 525.06,-106.22"/>
</g>
<!-- 14&#45;&gt;20 -->
<g id="edge58" class="edge">
<title>14&#45;&gt;20</title>
<path fill="none" stroke="grey" stroke-width="2" d="M835.42,-146.41C877.79,-135.67 932.59,-121.78 976.72,-110.59"/>
<polygon fill="grey" stroke="grey" stroke-width="2" points="977.71,-113.95 986.54,-108.1 975.99,-107.17 977.71,-113.95"/>
</g>
<!-- 15&#45;&gt;0 -->
<g id="edge6" class="edge">
<title>15&#45;&gt;0</title>
<path fill="none" stroke="grey" stroke-width="2" d="M624.8,-71.7C633.6,-63.14 644.38,-52.66 654,-43.3"/>
<polygon fill="grey" stroke="grey" stroke-width="2" points="656.68,-45.58 661.41,-36.1 651.8,-40.57 656.68,-45.58"/>
</g>
<!-- 16&#45;&gt;15 -->
<g id="edge42" class="edge">
<title>16&#45;&gt;15</title>
<path fill="none" stroke="grey" stroke-width="2" d="M877.56,-146.41C821.54,-134.94 747.98,-119.87 691.7,-108.35"/>
<polygon fill="grey" stroke="grey" stroke-width="2" points="692.26,-104.89 681.76,-106.31 690.85,-111.75 692.26,-104.89"/>
</g>
<!-- 16&#45;&gt;21 -->
<g id="edge61" class="edge">
<title>16&#45;&gt;21</title>
<path fill="none" stroke="grey" stroke-width="2" d="M1022.29,-146.41C1060.57,-135.74 1110,-121.95 1149.99,-110.8"/>
<polygon fill="grey" stroke="grey" stroke-width="2" points="1150.98,-114.16 1159.67,-108.1 1149.1,-107.42 1150.98,-114.16"/>
</g>
<!-- 17&#45;&gt;16 -->
<g id="edge47" class="edge">
<title>17&#45;&gt;16</title>
<path fill="none" stroke="grey" stroke-width="2" d="M914.46,-220.82C922.13,-211.7 931.7,-200.33 940.16,-190.27"/>
<polygon fill="grey" stroke="grey" stroke-width="2" points="942.89,-192.46 946.65,-182.56 937.53,-187.96 942.89,-192.46"/>
</g>
<!-- 18&#45;&gt;0 -->
<g id="edge7" class="edge">
<title>18&#45;&gt;0</title>
<path fill="none" stroke="grey" stroke-width="2" d="M733.96,-71.7C724.94,-63.05 713.88,-52.45 704.06,-43.03"/>
<polygon fill="grey" stroke="grey" stroke-width="2" points="706.48,-40.5 696.84,-36.1 701.63,-45.55 706.48,-40.5"/>
</g>
<!-- 19&#45;&gt;0 -->
<g id="edge8" class="edge">
<title>19&#45;&gt;0</title>
<path fill="none" stroke="grey" stroke-width="2" d="M840.17,-71.97C810.15,-62.1 772.18,-49.62 740.63,-39.25"/>
<polygon fill="grey" stroke="grey" stroke-width="2" points="741.66,-35.91 731.07,-36.11 739.47,-42.56 741.66,-35.91"/>
</g>
<!-- 20&#45;&gt;0 -->
<g id="edge9" class="edge">
<title>20&#45;&gt;0</title>
<path fill="none" stroke="grey" stroke-width="2" d="M979.36,-73.63C976.54,-73.07 973.74,-72.53 971,-72 894.84,-57.29 807.28,-41.55 748.06,-31.08"/>
<polygon fill="grey" stroke="grey" stroke-width="2" points="748.53,-27.61 738.08,-29.32 747.31,-34.51 748.53,-27.61"/>
</g>
<!-- 21&#45;&gt;0 -->
<g id="edge10" class="edge">
<title>21&#45;&gt;0</title>
<path fill="none" stroke="grey" stroke-width="2" d="M1146.4,-73.4C1143.57,-72.91 1140.76,-72.44 1138,-72 1000.52,-50.03 838.48,-33.49 748.37,-25.11"/>
<polygon fill="grey" stroke="grey" stroke-width="2" points="748.56,-21.62 738.28,-24.18 747.91,-28.59 748.56,-21.62"/>
</g>
</g>
</svg>
